<mxfile host="65bd71144e">
    <diagram id="XzoiOCUYF9rVLBq64rbA" name="Page-1">
        <mxGraphModel dx="2400" dy="707" grid="1" gridSize="10" guides="1" tooltips="1" connect="1" arrows="1" fold="1" page="1" pageScale="1" pageWidth="850" pageHeight="1100" math="0" shadow="0">
            <root>
                <mxCell id="0"/>
                <mxCell id="1" parent="0"/>
                <mxCell id="3" value="Customer" style="swimlane;fontStyle=0;childLayout=stackLayout;horizontal=1;startSize=26;fillColor=none;horizontalStack=0;resizeParent=1;resizeParentMax=0;resizeLast=0;collapsible=1;marginBottom=0;" parent="1" vertex="1">
                    <mxGeometry x="40" y="40" width="140" height="130" as="geometry"/>
                </mxCell>
                <mxCell id="4" value="_id: ObjectId" style="text;strokeColor=none;fillColor=none;align=left;verticalAlign=top;spacingLeft=4;spacingRight=4;overflow=hidden;rotatable=0;points=[[0,0.5],[1,0.5]];portConstraint=eastwest;" parent="3" vertex="1">
                    <mxGeometry y="26" width="140" height="26" as="geometry"/>
                </mxCell>
                <mxCell id="5" value="name: String" style="text;strokeColor=none;fillColor=none;align=left;verticalAlign=top;spacingLeft=4;spacingRight=4;overflow=hidden;rotatable=0;points=[[0,0.5],[1,0.5]];portConstraint=eastwest;" parent="3" vertex="1">
                    <mxGeometry y="52" width="140" height="26" as="geometry"/>
                </mxCell>
                <mxCell id="6" value="phone" style="text;strokeColor=none;fillColor=none;align=left;verticalAlign=top;spacingLeft=4;spacingRight=4;overflow=hidden;rotatable=0;points=[[0,0.5],[1,0.5]];portConstraint=eastwest;" parent="3" vertex="1">
                    <mxGeometry y="78" width="140" height="26" as="geometry"/>
                </mxCell>
                <mxCell id="8" value="id_document: String" style="text;strokeColor=none;fillColor=none;align=left;verticalAlign=top;spacingLeft=4;spacingRight=4;overflow=hidden;rotatable=0;points=[[0,0.5],[1,0.5]];portConstraint=eastwest;" parent="3" vertex="1">
                    <mxGeometry y="104" width="140" height="26" as="geometry"/>
                </mxCell>
                <mxCell id="10" value="Sale" style="swimlane;fontStyle=0;childLayout=stackLayout;horizontal=1;startSize=26;fillColor=none;horizontalStack=0;resizeParent=1;resizeParentMax=0;resizeLast=0;collapsible=1;marginBottom=0;" parent="1" vertex="1">
                    <mxGeometry x="300" y="40" width="140" height="130" as="geometry"/>
                </mxCell>
                <mxCell id="11" value="_id: ObjectId" style="text;strokeColor=none;fillColor=none;align=left;verticalAlign=top;spacingLeft=4;spacingRight=4;overflow=hidden;rotatable=0;points=[[0,0.5],[1,0.5]];portConstraint=eastwest;" parent="10" vertex="1">
                    <mxGeometry y="26" width="140" height="26" as="geometry"/>
                </mxCell>
                <mxCell id="12" value="datetime: DateTime" style="text;strokeColor=none;fillColor=none;align=left;verticalAlign=top;spacingLeft=4;spacingRight=4;overflow=hidden;rotatable=0;points=[[0,0.5],[1,0.5]];portConstraint=eastwest;" parent="10" vertex="1">
                    <mxGeometry y="52" width="140" height="26" as="geometry"/>
                </mxCell>
                <mxCell id="13" value="number: Number" style="text;strokeColor=none;fillColor=none;align=left;verticalAlign=top;spacingLeft=4;spacingRight=4;overflow=hidden;rotatable=0;points=[[0,0.5],[1,0.5]];portConstraint=eastwest;" parent="10" vertex="1">
                    <mxGeometry y="78" width="140" height="26" as="geometry"/>
                </mxCell>
                <mxCell id="38" value="customer_id: ObjectId" style="text;strokeColor=none;fillColor=none;align=left;verticalAlign=top;spacingLeft=4;spacingRight=4;overflow=hidden;rotatable=0;points=[[0,0.5],[1,0.5]];portConstraint=eastwest;" parent="10" vertex="1">
                    <mxGeometry y="104" width="140" height="26" as="geometry"/>
                </mxCell>
                <mxCell id="14" value="n" style="endArrow=open;html=1;endSize=12;startArrow=diamondThin;startSize=14;startFill=1;edgeStyle=orthogonalEdgeStyle;align=left;verticalAlign=bottom;" parent="1" edge="1">
                    <mxGeometry x="-0.6889" y="-10" relative="1" as="geometry">
                        <mxPoint x="284" y="60" as="sourcePoint"/>
                        <mxPoint x="194" y="60" as="targetPoint"/>
                        <mxPoint as="offset"/>
                    </mxGeometry>
                </mxCell>
                <mxCell id="15" value="Product" style="swimlane;fontStyle=0;childLayout=stackLayout;horizontal=1;startSize=26;fillColor=none;horizontalStack=0;resizeParent=1;resizeParentMax=0;resizeLast=0;collapsible=1;marginBottom=0;" parent="1" vertex="1">
                    <mxGeometry x="560" y="320" width="140" height="156" as="geometry"/>
                </mxCell>
                <mxCell id="16" value="_id: ObjectId" style="text;strokeColor=none;fillColor=none;align=left;verticalAlign=top;spacingLeft=4;spacingRight=4;overflow=hidden;rotatable=0;points=[[0,0.5],[1,0.5]];portConstraint=eastwest;" parent="15" vertex="1">
                    <mxGeometry y="26" width="140" height="26" as="geometry"/>
                </mxCell>
                <mxCell id="17" value="description: String" style="text;strokeColor=none;fillColor=none;align=left;verticalAlign=top;spacingLeft=4;spacingRight=4;overflow=hidden;rotatable=0;points=[[0,0.5],[1,0.5]];portConstraint=eastwest;" parent="15" vertex="1">
                    <mxGeometry y="52" width="140" height="26" as="geometry"/>
                </mxCell>
                <mxCell id="18" value="unit: String" style="text;strokeColor=none;fillColor=none;align=left;verticalAlign=top;spacingLeft=4;spacingRight=4;overflow=hidden;rotatable=0;points=[[0,0.5],[1,0.5]];portConstraint=eastwest;" parent="15" vertex="1">
                    <mxGeometry y="78" width="140" height="26" as="geometry"/>
                </mxCell>
                <mxCell id="19" value="price: Number" style="text;strokeColor=none;fillColor=none;align=left;verticalAlign=top;spacingLeft=4;spacingRight=4;overflow=hidden;rotatable=0;points=[[0,0.5],[1,0.5]];portConstraint=eastwest;" parent="15" vertex="1">
                    <mxGeometry y="104" width="140" height="26" as="geometry"/>
                </mxCell>
                <mxCell id="41" value="supplier_id: ObjectID" style="text;strokeColor=none;fillColor=none;align=left;verticalAlign=top;spacingLeft=4;spacingRight=4;overflow=hidden;rotatable=0;points=[[0,0.5],[1,0.5]];portConstraint=eastwest;" parent="15" vertex="1">
                    <mxGeometry y="130" width="140" height="26" as="geometry"/>
                </mxCell>
                <mxCell id="20" value="SaleItem" style="swimlane;fontStyle=0;childLayout=stackLayout;horizontal=1;startSize=26;fillColor=none;horizontalStack=0;resizeParent=1;resizeParentMax=0;resizeLast=0;collapsible=1;marginBottom=0;" parent="1" vertex="1">
                    <mxGeometry x="300" y="320" width="140" height="104" as="geometry"/>
                </mxCell>
                <mxCell id="22" value="ordem: Number" style="text;strokeColor=none;fillColor=none;align=left;verticalAlign=top;spacingLeft=4;spacingRight=4;overflow=hidden;rotatable=0;points=[[0,0.5],[1,0.5]];portConstraint=eastwest;" parent="20" vertex="1">
                    <mxGeometry y="26" width="140" height="26" as="geometry"/>
                </mxCell>
                <mxCell id="23" value="quantity: Number" style="text;strokeColor=none;fillColor=none;align=left;verticalAlign=top;spacingLeft=4;spacingRight=4;overflow=hidden;rotatable=0;points=[[0,0.5],[1,0.5]];portConstraint=eastwest;" parent="20" vertex="1">
                    <mxGeometry y="52" width="140" height="26" as="geometry"/>
                </mxCell>
                <mxCell id="39" value="product_id: ObjectId" style="text;strokeColor=none;fillColor=none;align=left;verticalAlign=top;spacingLeft=4;spacingRight=4;overflow=hidden;rotatable=0;points=[[0,0.5],[1,0.5]];portConstraint=eastwest;" parent="20" vertex="1">
                    <mxGeometry y="78" width="140" height="26" as="geometry"/>
                </mxCell>
                <mxCell id="24" value="n" style="endArrow=open;html=1;endSize=12;startArrow=diamondThin;startSize=14;startFill=1;edgeStyle=orthogonalEdgeStyle;align=left;verticalAlign=bottom;" parent="1" edge="1">
                    <mxGeometry x="-1" y="-10" relative="1" as="geometry">
                        <mxPoint x="380" y="310" as="sourcePoint"/>
                        <mxPoint x="370" y="200" as="targetPoint"/>
                        <mxPoint as="offset"/>
                    </mxGeometry>
                </mxCell>
                <mxCell id="25" value="1" style="endArrow=open;html=1;endSize=12;startArrow=diamondThin;startSize=14;startFill=1;edgeStyle=orthogonalEdgeStyle;align=left;verticalAlign=bottom;" parent="1" edge="1">
                    <mxGeometry x="-1" y="3" relative="1" as="geometry">
                        <mxPoint x="460" y="340" as="sourcePoint"/>
                        <mxPoint x="540" y="340" as="targetPoint"/>
                    </mxGeometry>
                </mxCell>
                <mxCell id="26" value="Suplplier" style="swimlane;fontStyle=0;childLayout=stackLayout;horizontal=1;startSize=26;fillColor=none;horizontalStack=0;resizeParent=1;resizeParentMax=0;resizeLast=0;collapsible=1;marginBottom=0;" parent="1" vertex="1">
                    <mxGeometry x="330" y="560" width="140" height="182" as="geometry"/>
                </mxCell>
                <mxCell id="27" value="_id: ObjectId" style="text;strokeColor=none;fillColor=none;align=left;verticalAlign=top;spacingLeft=4;spacingRight=4;overflow=hidden;rotatable=0;points=[[0,0.5],[1,0.5]];portConstraint=eastwest;" parent="26" vertex="1">
                    <mxGeometry y="26" width="140" height="26" as="geometry"/>
                </mxCell>
                <mxCell id="28" value="name: String" style="text;strokeColor=none;fillColor=none;align=left;verticalAlign=top;spacingLeft=4;spacingRight=4;overflow=hidden;rotatable=0;points=[[0,0.5],[1,0.5]];portConstraint=eastwest;" parent="26" vertex="1">
                    <mxGeometry y="52" width="140" height="26" as="geometry"/>
                </mxCell>
                <mxCell id="29" value="adress: String" style="text;strokeColor=none;fillColor=none;align=left;verticalAlign=top;spacingLeft=4;spacingRight=4;overflow=hidden;rotatable=0;points=[[0,0.5],[1,0.5]];portConstraint=eastwest;" parent="26" vertex="1">
                    <mxGeometry y="78" width="140" height="26" as="geometry"/>
                </mxCell>
                <mxCell id="30" value="phone: String" style="text;strokeColor=none;fillColor=none;align=left;verticalAlign=top;spacingLeft=4;spacingRight=4;overflow=hidden;rotatable=0;points=[[0,0.5],[1,0.5]];portConstraint=eastwest;" parent="26" vertex="1">
                    <mxGeometry y="104" width="140" height="26" as="geometry"/>
                </mxCell>
                <mxCell id="31" value="country: String" style="text;strokeColor=none;fillColor=none;align=left;verticalAlign=top;spacingLeft=4;spacingRight=4;overflow=hidden;rotatable=0;points=[[0,0.5],[1,0.5]];portConstraint=eastwest;" parent="26" vertex="1">
                    <mxGeometry y="130" width="140" height="26" as="geometry"/>
                </mxCell>
                <mxCell id="68" value="country: String" style="text;strokeColor=none;fillColor=none;align=left;verticalAlign=top;spacingLeft=4;spacingRight=4;overflow=hidden;rotatable=0;points=[[0,0.5],[1,0.5]];portConstraint=eastwest;" vertex="1" parent="26">
                    <mxGeometry y="156" width="140" height="26" as="geometry"/>
                </mxCell>
                <mxCell id="32" value="n" style="endArrow=open;html=1;endSize=12;startArrow=diamondThin;startSize=14;startFill=1;edgeStyle=orthogonalEdgeStyle;align=left;verticalAlign=bottom;" parent="1" edge="1">
                    <mxGeometry x="-1" y="3" relative="1" as="geometry">
                        <mxPoint x="460" y="60" as="sourcePoint"/>
                        <mxPoint x="540" y="60" as="targetPoint"/>
                    </mxGeometry>
                </mxCell>
                <mxCell id="37" value="" style="shape=stencil(pZ3ZsiQ3ckS/hq9l2JfnkfQfNGPPkDYjNq3J0fL3AkRlVV/3rINu0xuXiLqZSCAWjwjHD/kvv//842+ffkjh9z++fP77p//85ac/fv4h/8sPKf3y68+fvvzyx/qnH/K//pD/8tfPXz797cvnf/7605///tuPW3L/079//o/9C//1p16ej9a2Vgr//ed/SY/W//c//Nuf8v/45dev5cejR5WfKB/193sC+f5oReUbyocu8iOAfHuUofIV5OtjJJWn963+vpN+vzyKydPv50fPH+TzI9Dvr5+LIh9pfdIjFJWn9Y+PqL+f6PuGRwoqP97Lp/nISeQzvG8ajzxFvsDzpP4oJg/rn9qj6fpXeh7bP/nRYP2XfDD5DPLlkXX96fzuxx0i3+l5nsfjK3laz/SIup6d1idey/eVPK1/eEzdP6OgfNLnmfC+cap9W/Kw/5d8/HheyiPA94rj0ZLI/98Beicfs8gnev6u9nxtEJaX77UMEj1Pe3R93wrrv+TTEPkG5z3Wy3y/5Aetf9XvW9G+xaLPX9E+LPmYRJ72W1zm4+N+bmiv4tMdvuTJ/sd4/e9Lvl8b9p18+vj741FJPujzLwMM7zsv73+Jrx+I8H3H5Q2f8vEyeG/kU1N5Wv/+qB/Dgb3AcB6bPQ/b26bmdm0Qkq/6edeGpXhp7V55/vYY8PtFj/syGBQPFN0Oy4Bl2A9P6/oMT8IVoL2RF3O+DPyE51/e/KN5O8Ub1+56ypfLALyRF3e6VjjD76drtZ/y7VHJ/+p+2+eR4hndz+sEBbKH1+o93dHzgL6Rr+Lu4hUAvpFP4n45/gn2PBXjvXBFI0/5jv4xXNbpKT8wnl+rIe5o/QLLiztN14n7tucpHM+s9xX5iv43XNnNU75h/LPWX953cDyg9qTMa8e+kS/i7gL7O/2+9ZlAfNt+rutEU3yo6VQt1459I18+rn+t14l7Iy/pZm1XQPTOPoh8x/O77E9QebaHEk7WgfY/a3hVJ+fLuj4tXAHRO3su4UnEeCOr/WkJ84us6984H8kWLpWDvKRfrWL8uaJ9kW9XwP7Gn4aP+7l1zO+K7ue24jH4XkW/b5sYvxX9vj1gfPuM3p/yEeOBFW989Bc9XQHyG3n5Xkt+gP1Z8h/tSX/uwHfyEg6XQ/wj6cWS5/WU/bPkKX8sl/d/ytcLwHgnH1Sezm/R9LG3K4J6930/7s/+BMze7Z+q8mSvyhVNPeWXvYLztfazfN+JeFrReG88PeA7+Y/PPyLm70XT65FO8vL7GfPT9b4fz+N4nqB36/lxP4x6AVrf9r1GO5xHga+W/ED58fH7jo7nsdp6rvgE8yOJ35Y8rX9V+zAm4l1N/ekMGP83tYczXh78Tb4ZospX+F5dz+NMmO8MhR8m57Pr9MnzML46FQ6ZGfdDtARgHgCj9Mgfv9isuKIrAZ9DFcilxqdHfypwDBcNJFgKnYLiqVHN7GjVV5iry9oZpswKs86Bee06CIKDLoVGge6y410V6KStRFMqAXNiqrFLB0MVyHblorWbpUBgYm522iajEV3T+aWA4eK0rTEx3yuWQE8OwFe+2f0vkEcuinCeFKrtpYmYROmP4o9EClO94OGlq6H2W4HcQtK8cn9peKSVFvo7NLBLK89LvvlIoSvyuhQK7KWViVU7D4l8VdRkYj6rC/cKSYtjSyHAO7Ss1a5lBCgcX9mV4BlLgfLFnV41VaDvsPMrs0uFHqlrBXQpUAi8MiyJ4edAn7tSLPVxHU3lypnUVHa0Gt1gjclhVbc8fykQrrHSlCxHtF1+9V6hXpv5a6dIkU+7CgNfKVAk0Ltin9tPk8IwM1Ov8OZeYdoBqrys/qUZzlzZh+R3K/yZpBA1YZtcMBiGYC0F2t4rAUkWkZERWApqyDLa1pWydAsqqSi0cxb5cOmKPt4pCOyyFMhqrKxFDVniD9dta0QMdHeeE1SBtvdSkFLSSjWolLcyHcmdlwJhs0uhmwL5h5UbafY8sXo/ppr79V8oDF3/W/bSzt/Aauz0q6oCud2lIAjSUqCX3gmbvHTHeGka5r0U6EsvBU1C1+4CY7xzPFlWtq1LQYzxaFyGtXhpHynwQNP6gpYCNbLMbMhHReu9bYQ8UsFgfVuhpAqHvzAMjKFi3TKMUZY1IVo1Dd4abGZmUTx7OQDCd7f7kL8QsGC3HVRXBTqi2wUKJDkRwp9VaxxLgTCc5cYlj+tctFsK4rKWQuG/UAzGJNs6m+Gk/Wq0e6egQHLDWGPFX1LZWQpU+doBm0DzFcPQpSB2aQV1VKuc1vvTudlvh7XypRNWZzcoIe8Q+aWHpmWdXda0/tIVjWd66aGGrHGGslOkrgqEa+ysTf5CP/2FbApovaeaytbYek/1D0sBzcydAu6laYXCiinNVkiqQJWkrSCls4KtuLcKuDWmgssr/6Viw60Cpfg3CgnTgVsF6ue4WdaIofTeS0MVqKNjTs3jNg7BH05qFC0gbLcPUFMFjJemdinViaj6xkm6KlAZZCtIH8LAOu9WiKoQDo9klf/Dd1CFxsGJGbKNafGyCkxRK+aiWyGoAmH3L0j5qVCu7fiN1rtmdrtPvOorBQx/DP2pCSt22wNZSwuGDsNaShO7XfNxNXKGMrTLcikUXlZty4ns44bW9TdkS3ZpWONM4KjSGp+XwukdgirgiRsa6JaJJZGtMFUB/bQ3bw+sRvuyLoXDS8vWKAw9TsMElsLhxEl0vzvOyPINxciWAgaJU3suDz1wbltLuT7lW/8gTeJchZ9TayiF20y3j5MPdzACFmCViDUUj2aWwuGRblodv1fh8OFEYZfDvusvZC5YeDSz58kO4Y/1gx4iMp3/Gdig5/FS5g7erdBUAc+07aXcsT7tEVluDKpN7aJeCgSf3iocjqiOYTWOBPwd6inAkhwo11OGol+aW2v8iL4K0N+6+fJ3Bus5YTevG4GlcDpA8kiHSMC3d8CKnyevS+GwNSQ9Tlwy97g1TZwZ8SBxD7EwTNFlCqFzajlsbKEz9Dh0t6YDQOtzsJWTpq5tMK9eyncK0tp4GHXbcFFVBerF3jVK+Q4Jm+13l4xMU0SOl7qCzLshnYFBXaXA6XGzed7AuLcNfC4F9NOGVcaJlaaNhiZVwGVtmpbFyabShuoid5VvzHiqAiavVY3xHlxkkFlKU5EH2XbXWFQF6sGaRQPd2LCVdVov7lKg6vG05unIBe3dKid/oWL34rR22T3vSAfIKhyx8ObL2pmzFKhhfFdpmipgVJntPORTHUhGUpcC4hrJhvgS11Bs6HIpYMKRtNy8FKiVZ1ejZXtzH/JSCFMVcGtEdYpLgTpbd9UyqAKicNFeOmCX11LQYc3ASVO0Mx3YAwV17JPzvmBtAlhhX/ISy0zcebv8/XEjcU/lrq+rPB2FYWE3tzoNQ/gGRunDAqXOnSBezsHp5uH1Ip72tR4KrpOPrq2/DcGPYSW1hhnAktfxMzwBo6k1rdjLtuQVRcPMcDSDJbj7qF0n/CVPRmVUn+4nZ7DkJR1hdoIlb8+D+7PY+Cg37RQtLGdMOkdWrDdfiMY7eft9cgPD2jK4IDusUYTZY3ZzgcT8WHgf4ap/veTR/gSNPxLu5z71fRPWAPvUXp2E9r8/h+Ve8lSq6s9h+KeDweS3d80DI+ZcS17GMyKOKvSmvasRI/1uDe8Rs8w9bKa/T50b3dpV4lUXu5fPV0XqJY/TMVnLbAw+9KTYGkcc3caJA7IrdAtpAhbAelB/HRB42M0NJg/r06zfLnDvs/n3gPaqDR0PC9jZ1rpmxwEnOJa8fV/yv62pvwhYwd89B0HlqXO7amZ8kC8asQaMZ1rWjO8gb8MeAc9vS3reD/JR7fNBPuj4GcvXqeNkR3mx5wf5oejkQd4gq6N8sP1M8u3meeD7VouXeL8tebMPdF6qjXfy+a1Zq4HMFrLk3Z4QO01ScJjtYTV2L+5w3mQTZs/B/9Ybe4vTtVYzCJjvlKFAAfuXJR/Mf9G0eFf2Py6il6b5ZsD4pNzYW5xmq+5PcRCsuj+l7o1iEBs3uxabBeV4oxidUMR4uyT1v9wmUaJhith8suQt/sRp7uDxJ/n3Egw1wngj2yArdydns+cRz2O2+Dwy28ZQ+xNxf2YbyuAhjl031eehkshmB9X1p2rCZgfVfArZOC0+Z/aMbHQYzFaUjW6A29Vz1v2fcFo8Jx33SIhHLXnBWxL6uxy1uyvh/s9R84WE/ivbHGpC/5WDs7MSTux0eMymm6wNMTFb5tD4jdlrU9f9z3jCZkNV9ldqnkjWNZ8x39x0DNI7gfsnVd2fGQHlDYcp3kL2yulIMuabd+yp1FCckvprxruSDfQWXv+g+GdhdtygdE5HeSlzF+Y9CDoNXxAfe5VSvw0/TBbvFcQrtryyp5J93vLGFsvPL63QGeMZp5/LiIfs72X7jZ+/6/ml+sgO1/T3yT+moPY/sz2JN3gvfa+o8QxPgN39PnWS7OfX84LscEH9UUE8c6+/7jfKN1/p0DefR/GnPBvs7MfMlun7v7A9vzlfyOZ3dx4P9kHXB+1nUDwnY8n/lX5/dV54/1Q7v7x/vk8+aWtUxj4+py/M2FS03bOybVN8tZdPfx/3f9Ge7Yzx6vLvVk+h+mC6ibfRfjatVyZmZzU6p0P85i1U2DGShp7HxOz03vnG9mRaHxvat93aZ/E/5UdGV8r1mhz1+ya059l4kxLah2xtFgn3T05qzyPfzpB1/xzyx+L5MtE+ZaPzi9gvultiLV+m/KUaPTdORGQbzGU2syXfNb9G/KHr/uf2vtwdb6H9n41SIWL8mYfXsxLtT8MPI7br5qn2KjL7ovkjHsUrN3gpshdah05gNku7DeSA7yWlRwm4P0t2/BPxW6NPZTx5yU/Dzwl/szZGxs831ZbWX5BttWk+xXh+abo/uR638WSrjzC+HUye8W2vxzFRWP6e59kTXlbPovqF+aOA+elrbO4lT/ahpqvb8it5pi2b+vyUj9Ss9jlgPrunKVWeRuL2uKbJc33K6h003n9XL6P87q4eh79/U+9D+Zt6Isrf1CsP8lYPJfm7eivK39RzUf6mXnyQt3o0yt/Uu+n73tXTUd6augPGb3f9ACh/U/9Cfryu8VXAfLNZfHKQHzpBcZC3ycjD+xr+zN+3Bx09CBifdKM/C1hf61Hjc+7v7Rb/B8xHelJ8LCAe0o3+nv37JlzR50F23+L+GvvHbM4iIL7X7fqZwKR+3euPlI93YwLl+uZm4dF6HMU/3camIsZvm0dI43mqj3ebdouIt2z+P+snhOcfhtclvu0o2nU1TJwXtZ7C9SwnCzz0c9p1FId+0ax4zoHHrzh+Tud9WD8A3+63KccUv6LhrWHcV1zf2aRphh8e+rGt/5n6863fu/D3bTZ7z8/fjTgF7f/oGg9Xni/ofnsaklkOIxDB+b9h130xo8nmDkwif2JQ1HkBqt/teQqdj0hkH2xeo/P+tHmQjnjmMDxh8CS53bY5eLIwaH/FYDaWoIOFB9odq+9MHu+MxjHLM7BR7VXkgGmTgFZVOBAtascNQxZLIdsjHZgZtceFQSznfozsVaddYhS5LX7aLWqR+1CmzUlEdmQza+NBTDyh6mOImYfIs83LZV4luxok8lWgThYZC0/kFbussDAPUDG4tTKtT7H47MD4VC1gbDwkWG14uWEL+54U7qqAm6/alC1TX09LEmPngVNjH96XKPLUucLwB1YS48qOB96Tpo4t8j2Bs9lI6+Q53mbn4UDb0G1WJ/C0s/F9p8BUv13Ho3d6Q+/QNbw79FduWvamCgeOBCmA7oicuSp0lTJCenNYiYxr0JtSU2J+vgLNibQ29cSBY00UGlM5DmNh4FvxphFTp85j6gYknyKZaVwVk0eLp5Vy+YqK15UXz1zhQMQ7tVizqViYXkmqC2eyFwkPz3Qyepv2kbBGr5M/UuKIbT2T7mjLwZHWR3O2I3GQNjExNVEMQdOYA/vRvcaBRUcf6kjhJGfuTBKlvZFHGipd2CPRlVTbzlRaepvskaxLt9+RDkw3+JFwTI/QkdJMW+iOpGmicKZl0yY0rnreKDDstxWKKhzMgOBUhQeDp90zVrgzyM1xObhFu7lpkwgeuLfkHc6ExQL2HBi/nUSwnVyK5IqbzJHfQfD10k/swKpwIKQ0RONEeekvfSDVND69E22nUcudiEGN0uxEPWrf4URuasta+ZrK101QT4UDQevUzr0TBezU0vWJZHZqIFrTaVld4RALSEJQeXzh5jscbjO0zXeiE7aGnhNhsTH2LQW8iWBqSaUeiRAlcj3TOkuR+UwcLRn1mZpa2grr0U/LHFjlW8CmDcLXycml+YfXdWtvFeRm6oCzAO6yWmA6sGngMk8rzmmXUx+p2qUc1g6sUhZrnOnmXeFAaC/x0pky3xUOpPyqcKT9l5jvfLGAKhwjAb1zgnmBbv7C8foF/Q5c2dgKVRWoNOzp676k4hCRFVU4OBQBshvfBXxzE8E4/QXB4drkm5uGfoce+DsYzXnnDk4nBt1XqjCBtzD29QNg1NUI9MJ5XLd3qAyVd7tth2myNtJXVAFPXNe5nd5PlJdyHvrg2LvpZFw/BLp2o9yr+eCdgkQzfXJwYrSdnS9ydSB7HIpT1r46DmyoVfst932FzGApid/gCQPnyBwHh2LX3Y5jnUbfoTBBa1YcbhwAVJuSHgeEKdt3OMR8WQ3ZOKSWNsgwGldSk0Zk43C/VbKb6ztbDSulHq6Kd37JpYBxa7y7XP676CLHIQy1/vsxOYQznG/wpcDDYIrB7MDD71rmHmTndFwKSPo3lJRgMmvG6Lr59qX39A5dl3Xy3M3em1L3T1hKHWaMJ0/SD780PmPrwjBqqaVALmvYbPnk4d3hlzOzY3d2wW1t6YrSqKHDZHbgpSCF/8mXPg4b2JwVz0M3IGR7Pab0E9s6GYvv3ZaVofje1FTuYIIUjKVgclvRCtgkn55sW7vNyUy+zrD7zeAdoccV1krn3unOaxvV2JEscb8NLezMwWRx1ly9afqpW73Z5cwD6ZpeWdtXCnQemt+EzIS/zQgj9u0H9Eh+/TNfvtmitoi/ANVbhWrIyQsJv1cwkp45mZWr3VxLTxcm1mJ3LU/s/qlJI+NXhn2vEOyC6cmTcu52J+J8xVunAzf37+Ex7T07aBRjFT9pJNvhh9eIijMfFLJhg69C472C3VPxKgPeK1QtXE5m/c5Fp0peYMe9go3RvPDIW4VkRerJ3Tav+0e+UjhMxt+YJlLIFtBwh8SL+usrBco5omHlkwP82O0a+IaHLlbtApwNMamYtetpRw/gU2JStGUyFhKDXv/x6tq7zwjMfjOFjDG0TsZPuzKMvLo538hHk6ecqWmz0OR7CJr9PgNkNmE4eWS22n3x3AJcNWLdGRyN2BrGMhDFKYqNDW7xLtaBzdCY2a7ReMTcgICKEKgxnm+OdbKNGvEMpjCxidaN93zX73NJI1tKH9h7KNjTJ4IMWQOFzna3GKjXEd8q2j/+mtF6Iy8JVW844lwMiq0YexWtjXe+rNGanHthCgHDwws6jbvfJ/y8aM1g5UpE6Wch1EqVaD8Yo2Lnlrqi4fjKrOh7GcNpZ0rvbHWeyRSGam/3DCqFZ2r/VxpGoVDWCaLWsMPcoNFWMUfL+r1eOdg7eSnN5YO8xPl7RhrlgxV5yR8l/b6NKe2Tft/KRYJkdwkPpohT/LF2pnDTeGbJEzhosHFtODIVdX1qxS7aqPFPZYpBuyGj8pxItLYZrt8ZI17lpl5j6Ct8tXnQbpAycD2D9Ws1HPEM2ol9uKzXYJ/CI5UGkBceHXJ5pmyx59kNniivjGMd40ObiMs8chO0p+PFIfVmvykjakTs0PZzDlj4iRr/pMkUmFqJSv1gr3RmoyEGnXTifUf4RGlmV3keKEWNIS4f4mdhFE0RKTyNQWBTFqG8Xr048fktfot8hVfR9YkNM+Bq44g8EVZv7gek9uZm01o8om03bEUeYTcgJTJl+LDn4XzBOjn3BCkDBEESYLyhMdrI7MB8LRpM09Ff7IsJJcBCf7Q+jyScDSnQog1eVqR4j1YGqxwPFDWg3Ly1tq/UFhmfWfLSu8XdZHucURwSP7/N1fG8S+x2ozPiRbHbQA3mp3syUSk8yT/GaZMrGA/H6RQLNK5zR7FM+zkZxd2B4tS6CrhM+2KwfMmTv94OxijJ6X2z4uMZ/fUdJTnZh015rutPIwMbgNPfp3LRNuj2+7D/kzWP8eWt+0ZL3c9U9E7W156ZUtQohzNO26zwS6pdB/wqOoUM4kvJLqDGPpx9RYNdEUDPX9QeMoVttonvxFd82JVHia8QaZrwJ4wPs9/ojedxXwliV0AwRagGfIyXDq2rJDxf2Sg9ElLa5JsrIw7ydiUInd9sU6eHKzis3fqwPjbDd1h/GxLkgeo7ecIPs5XmDvvTerkTNntk68FPjHdNG6ZG/5inAhyH8zs1Hvv/yq9/+O3HP37+81/++ss//vH7H18+//3T1///r5+/fPrbl8///PWn53/6/ecff/u0/u1/AA==);lineShape=1;" parent="1" vertex="1">
                    <mxGeometry x="263.4069667932167" y="13.154557595025722" width="230.57263049972244" height="447.7435418949716" as="geometry"/>
                </mxCell>
                <mxCell id="42" value="Address" style="swimlane;fontStyle=0;childLayout=stackLayout;horizontal=1;startSize=26;fillColor=none;horizontalStack=0;resizeParent=1;resizeParentMax=0;resizeLast=0;collapsible=1;marginBottom=0;" vertex="1" parent="1">
                    <mxGeometry x="50" y="550" width="140" height="208" as="geometry">
                        <mxRectangle x="40" y="290" width="90" height="30" as="alternateBounds"/>
                    </mxGeometry>
                </mxCell>
                <mxCell id="43" value="street: String" style="text;strokeColor=none;fillColor=none;align=left;verticalAlign=top;spacingLeft=4;spacingRight=4;overflow=hidden;rotatable=0;points=[[0,0.5],[1,0.5]];portConstraint=eastwest;" vertex="1" parent="42">
                    <mxGeometry y="26" width="140" height="26" as="geometry"/>
                </mxCell>
                <mxCell id="44" value="number: String" style="text;strokeColor=none;fillColor=none;align=left;verticalAlign=top;spacingLeft=4;spacingRight=4;overflow=hidden;rotatable=0;points=[[0,0.5],[1,0.5]];portConstraint=eastwest;" vertex="1" parent="42">
                    <mxGeometry y="52" width="140" height="26" as="geometry"/>
                </mxCell>
                <mxCell id="45" value="complement: String" style="text;strokeColor=none;fillColor=none;align=left;verticalAlign=top;spacingLeft=4;spacingRight=4;overflow=hidden;rotatable=0;points=[[0,0.5],[1,0.5]];portConstraint=eastwest;" vertex="1" parent="42">
                    <mxGeometry y="78" width="140" height="26" as="geometry"/>
                </mxCell>
                <mxCell id="46" value="district: String" style="text;strokeColor=none;fillColor=none;align=left;verticalAlign=top;spacingLeft=4;spacingRight=4;overflow=hidden;rotatable=0;points=[[0,0.5],[1,0.5]];portConstraint=eastwest;" vertex="1" parent="42">
                    <mxGeometry y="104" width="140" height="26" as="geometry"/>
                </mxCell>
                <mxCell id="51" value="city: String" style="text;strokeColor=none;fillColor=none;align=left;verticalAlign=top;spacingLeft=4;spacingRight=4;overflow=hidden;rotatable=0;points=[[0,0.5],[1,0.5]];portConstraint=eastwest;" vertex="1" parent="42">
                    <mxGeometry y="130" width="140" height="26" as="geometry"/>
                </mxCell>
                <mxCell id="52" value="state: String" style="text;strokeColor=none;fillColor=none;align=left;verticalAlign=top;spacingLeft=4;spacingRight=4;overflow=hidden;rotatable=0;points=[[0,0.5],[1,0.5]];portConstraint=eastwest;" vertex="1" parent="42">
                    <mxGeometry y="156" width="140" height="26" as="geometry"/>
                </mxCell>
                <mxCell id="47" value="zip_code: String&#10;" style="text;strokeColor=none;fillColor=none;align=left;verticalAlign=top;spacingLeft=4;spacingRight=4;overflow=hidden;rotatable=0;points=[[0,0.5],[1,0.5]];portConstraint=eastwest;" vertex="1" parent="42">
                    <mxGeometry y="182" width="140" height="26" as="geometry"/>
                </mxCell>
                <mxCell id="53" value="n" style="endArrow=open;html=1;endSize=12;startArrow=diamondThin;startSize=14;startFill=1;edgeStyle=orthogonalEdgeStyle;align=left;verticalAlign=bottom;" edge="1" parent="1">
                    <mxGeometry x="-1" y="-10" relative="1" as="geometry">
                        <mxPoint x="633.48" y="500" as="sourcePoint"/>
                        <mxPoint x="493.98" y="575" as="targetPoint"/>
                        <mxPoint as="offset"/>
                        <Array as="points">
                            <mxPoint x="623.98" y="500"/>
                            <mxPoint x="623.98" y="575"/>
                        </Array>
                    </mxGeometry>
                </mxCell>
                <mxCell id="54" value="n" style="endArrow=open;html=1;endSize=12;startArrow=diamondThin;startSize=14;startFill=1;edgeStyle=orthogonalEdgeStyle;align=left;verticalAlign=bottom;" edge="1" parent="1">
                    <mxGeometry x="-1" y="-10" relative="1" as="geometry">
                        <mxPoint x="115" y="540" as="sourcePoint"/>
                        <mxPoint x="105" y="170" as="targetPoint"/>
                        <mxPoint as="offset"/>
                    </mxGeometry>
                </mxCell>
                <mxCell id="55" value="n" style="endArrow=open;html=1;endSize=12;startArrow=diamondThin;startSize=14;startFill=1;edgeStyle=orthogonalEdgeStyle;align=left;verticalAlign=bottom;" edge="1" parent="1">
                    <mxGeometry x="-1" y="3" relative="1" as="geometry">
                        <mxPoint x="200" y="570" as="sourcePoint"/>
                        <mxPoint x="330" y="575" as="targetPoint"/>
                        <Array as="points">
                            <mxPoint x="220" y="570"/>
                            <mxPoint x="220" y="575"/>
                        </Array>
                    </mxGeometry>
                </mxCell>
                <mxCell id="60" value="" style="shape=stencil(lZ3Zzhw3koWfRrcF7st1z/R7GLDcFtpjGbJ7lrcfEkJm/XVO1petOy2MSi7BWE4s/JT/9uevP/3x+VMKf/717es/P//Pl5//+vVT/o9PKX35/dfP3778tf70Kf/np/y3X75++/yPb1//9fvP3//+x0975P7Tf3397/0L//udrobHnJsqhf/7/i+zPMr3f/n7d4Lfvvz+kSA/elSCHICgP1JWggBfaOHRghJE+EJLj25fiB0I6iNVJUgFCPpjNFt0BIL5aL6t+T1Bj8cSPxDUBgTpkboSNFh0z49oB9cTEoxkX6AprSUOWwMtuj6iHVyGc1gEfg6BFt0eTaa0+LcCQX+0rASZvjCOXT8J0mPSGuajFyUoQDDCMeOTID4mMN+IdkXjI8M5jGS7FJCXRtYrOuZjEsFihKgECc5h1Ed+PekxUC6NpmJmdOTW9d/hddHrJwbtUn/MpgSBzmE8xitrrFXFAQTzuJAnwbpSIPnWMem2rpMBXlqMkF6Zb539hEUvAl3DEjywhs3MMqV4cNc7ArnTiyDSlLKd9NoGYI1FUI2ANNAikCmtS1uBW7f6iEoQ6OCKXqAlRzJ9oR6sdhJ0Pul66JuToD0mTWnJ1qIEpHZnUy3aK97pRdCEoKBcmv3YxJMgH9z1jiC/XqDOsnUR1FchsBRxpUV3VYr9NFeuCcYjvJ7Dtg1ALi0CYe82jn17R1BeD26ZK5UWvX7vlZdae2S6D+PRX3epVb6i4zFfd6mtK0VrmLZL6TAm3hFEWXQ8fuIdgUi+Oo+zf0eQX6dUx/HNdwTllVtrOxTxW4JX2VrXBSJeWjN+3dZtjd8QvAqymvjgprLGchBQzEy1l8pE23ue3H8S9Een+zDVOCmN7/Q89uQkWNsKhu4FAXsoe0qvB1cyi3vfpYj20j44+UJAq3Lz0usu5cmKfR5m7UlwXtq3F+iV+XJnhWJ3OrdDr76TGuOV+XJFQ3cRCHsvgnAjW2WXCqvdfhzTSZDZmjm18gcC8lAWgfhxObEGamqc5MgHt65LVQK0KtuxiSdBeAy6D1W93UVQaEr1cPMOgrS49cb8yUpA7sD2be0LqB+KCuM0DuP6rc33uktpMQuxxilUPhAUWnQ+bvBJ0Piks+rpRZBpSlm5NVXW0/ngzQ8EBIRs71mmtE6G7kPWK7oIEhNE2dZ89wUBQlJml2bd4NcLlNKjE/MlBdVSPIzrtwSy6MAnndQXXQRorCe1yOJEqMXdsjjYEkgKU8R+bMM7ArG9F0Figvx6cHGJNhL3SfGlWI99e+ftzqAE6HBEdWliOZTYOwLBNRYBYQKLQHygmFnync7wSZAOWfiOQKDHRUDWzJjqT8eIduswdyAGREMXgRjrJ576DppRDx9F8WiHhHiOJwnwBHpOrw/vwqiGB6DyGeXwv05v5tBG7/A3tevxqm2Ab8p48hDHElfiyqDbMIJiBwVZrk8VLgUd0D4OrfQcHxjFVRsJfYy+bCqxC9EG2zi0GDyHMfAOGZcLkHn+rvlRf3RXB4zUrwueZDzZOn0JIbET0Gxu0xTgcSGuxw+9jwn3p/VD7p8CBQ3U1nS9EU2EVtTMYQyzJeWfiKBQi4eP/BxPgZJq0AKjVNWiGPFADq7H18O5/DCegoBF5XNEfquLHW3/af5B3a6I97fMgx0/8AON7xf8BverNMWCEsYLS3H+JzOiZLWdEvJDSQrT8H0vUeGEhPxfgp5XOmDPy/F5muNxKJDr8cPsXZz/Gh91POnH3FWf8nnlpveFLaCNS+h9pP3MJ6734X7RfIqeV0R5m7Pf30j7mc0K5fUmvS8B79caH3U83d8c1X4LKG9zUH0ajgvxbrx4DgGD68kAvoDyc2MLOh+Sz8vcFPzjZnxXDDSgD7Bxgh8cn+aPjK9+Xjje0Jib8VntmYD2yRpv/Eb3K1mQMhwX7np8dH4g+z+Z/gqYarH+OwcZT6HoeMGfZP+v8eK/RLTHlqsvcbSI5xUN9YyoL2LT+5sQoV/jo9qfjfanqr4+MZ/r8Qb+Zcx/iOZ/FfQfl0Pd1H8heCdGlbcV48/LnRZ91Ph8gyK87QjzX0MEGpLsGDobqn1Pdrr2LtSYmWz8qy840dYw1omcLWBx83UYhGWbaIs3tqGiwIuZKNiUNeYXM0aCsrk6BcHKZKZGxXBzMlOmsWww16gj8BjNVeCwa1SAeQs7uruHZfRvIqfBXOuI3ByO3f4IFuPvKwRfDkD7zXhJ+UkVsYGgqm5fXvx9dXUmRuJNdWW2VX18RvDQTLdcEUsLalrtqCP/vkA/A23JoNBDCZjEEhTlXs4b85u4gss55POdMr4i9hDVlVrOcAZbOGr0sEzMeos6/8q5hOm4ref4hFiamW6V98fCErWi/MmKhtcTHHwzXpM4BkZX82HZneMnYxUKJbeItoZllrWEytoSy1pG2830Yytoe1ZNIGyNk7PV9Gydc7MtN4mxfIu3t4nyqiv/9MDYvGXFRbT9hyav98yBavv9wrH2w/M+x1f0xaMJ3N4fkYzVoBq+c+Q8mkjZ8QAybw2uHpF1fFKlOhICIjum9jqlkZEr4lklcRIUTCyPll45GsbAtpkkMaqBFyFavs0MiGo+QZmTIOI5bFvx9Rx2AgERWI7ETksloKNqCtBk6buvs9RNdMys2r6IEAz0JfeFkwR/ziTJ4bguHwgoLzabCt/JWaRyou3SxEB49gR/Tp9ZNlk1AkKo8imEPhIQJFetLOhmSk0D4ZuAtrUZe7Okz12jPs+ct3ewtDLfDWsM9dOfqbXvgHXxziaXQSxjVEubBkq+YlDqTnGmWEU01ujIfCVp4uBkhbII1MNnE75kFcaLgJivmBO+k9nJqCpamfFMkrsmqGrG7Px6+sKZ6viBgOyG0tTwXATk2C07P9gXkJfONPKPBLStQ8PEk23tReBfSDSlaUKgordQprprm4CmNDW0P09JdW3fmr00K4Jv2x/yL1A01KLvk+uIFkF2AlCKNdqNqwi6VL/TFRHWRVDtHAj2WgSqFCtKjWqZhpuAgtJZLbLJeeK1WCFe5dLXcrGthBUsgvlDN66a9zYrZxJUzWXcybvES1Wh4skpotVSdeeZffF20UMJ8OCKadGGKaK1XFiVhOHtk7Yv3BycYtisUBaBmtINYb9FoIKsIUxeizrqs2KSzCUBaaBqUZPNfHxw1b5APtDeVhMzpFD2wdl9uLui/gW6ceVCT1OBcLVckBu1uy+QCQHyUK6vKC36SghQXuwmsPuA4r5oAttsrEWLCeN2dw5aRt1uWePHCLIi+XsNTKA2H0NdW8fZtt4oRdWiDR2OCz3dMNPj0hKgVNpLW4NKOS6tGapUurSXKHp6aZFRpdKy+fQcWFReWpVo3VsA/o7ASpvuCVwIUPHUtu5NetPBbf/B3DJS7KVpqGpyRXGpGmubHMfeXpaZDhTM2H6cEVBkfRFEmxKmImbb1ob4eElm83W0ZoqVQUyO6JVo6E/HG7cIlFsZUy8WdLsB1fJUgHaXDFMG3TDWmOj4ZcPhn9Wzb9GfogRUvpst8rAIKBKVrYpgEWAov1oZxERh7ChcDIEz+66APmLXSygR52S1BJNr/Ty5b+8r8UbQEOKcWH6wIV2b0k2+nhOQJNv1Ho7bUQZb1bLo3cuAvlCsYVDFuN1O2f+h3jnJ+zBxZDZav5MZEKGNXUv3BteYRdul3bMFFh2Lov2DK1li1ojFyOgExaRXbnD97s7tkkVHdCBi1AjwCLyGoNnMnVFmTwfrnRtCqGLvbAkMdYE696oaWszeM8KC3X4/ohDrNv/AXaGuenhgTFpUSRuYX9pUWuwOHmThqlvcOJZYNT223YCgCnS1wmi35gy1m/x/9Q5bxByjfNho53iObFpJcB2YA5EUBKgdsZV00bgD85O1DnU5o6SVo1oWletHorojywWiGI7lwJWJcG9QTHz5ApQDESzdtWL9ZrAco4weXtB09Z1ThTlnut6AIjdoa7DM5mxQl3bnnGEOmRiCtzltAr/c5szp+IhQh80/cWg1WAU9dxwKqsGWRKJ6GXMntrXDOXmWc0k5cEHT5/eNQP4UwyZycxVr5rhNI1LAVr7GrVU8R7bf5LyK8xQb8k+y+XDcIim+vtNjUD5reUFG+Zyt3Cqha1YUPIncf6Gq0bfGY8jCyhMD8k8zBAvzO6y6dRzn/cZa0oww7taise+OsnMqPHGTthRMd+FVj9ZBoaJnFZPGEAqqop3ZJbKZS2uKukmZSyksjyVhSlRs1kwEMeLYNF80cp5ZN97ndHvjnsjpvUPjsuFIYLweP1VW3ZRyBU23Cjh/z38OGGhIxm8B2X/belqaFciUzGprBDYls8+fRM9VKR2Zklelejj+ohTwZryVGuL4i1JGHD9UFwXkz2RZkLfjfT6c3ZeVn0n15qDyM2Aawy6FVf4h1ZKtHicgepxNV7MpnPNFqSShokVtT07/zxbiDQz2ua5G1zRXvV8RoYRsuppbJ+Su+oXl88alxfZh+NQiR6wvdim+lr5THPWq1J9MvZ3+p/orUWggaTsinv9uhWCl+DetFrRUHsNeTRFBPq9i+f+RA0ZTfRdG965aXWAui7V+4FLeq1YdGJOuis1EtMeuWo1gRPqilQnJ56tWKcQPV61YyHVs1pk8Ym5da6pf+Lx2qxqVJ5QBv1vhmPyhVj6GJUR0jXpUrJFbpfTk9irZJz2r/Of73q3Un1sL7VZKOh73x1rbcOuT3SVbS8dxvV3zgTLyQx8+nqDhPn0+2Pw/6O8XDNoMq88t6L+M5P4d2T+7Ib22KiN9Oqz10k2TfSv1b7ifox3m/gf3l1u/yf53jDiNrqmDg9c7rHAC/Zcx7c0MfnnB6r+2h87tALU3DFtA09DhXQFPiILDXemuLaOu4eaZg2RF9nwLdmvJoQTYqziZ2rvpFGlFDbFyR+esjBpv2id7U5+OqPsikDDbcu6x9bD3IuAkjGmBmxtveFpjjRS4BbQTRO7Nak+X3PQSmfbgUcqYYj0tb3D3fOA1CLyc+A2m3RhY2mHVu+cmBJC+kcLTrMbE2cb74Z6uBPgoh9ldWxDfPJlRleDmCxLVW6IY12CJt1t200lXzcR6RrrfESjzceHeNGs83bR1b9bh/KYVd9NYyEYsbh7lkN6XHLydFm3PCSG02a27ZmJBZu1iM1fv7sbx0hKdc2F2a/qsBHcPWsgaKuKkuzZRdqlh4sm0JIzcMcvDX17IA6HwaV39MrcqmN7W9aZxvBm3+10EnpJ4yyVx56tgsdBd/IfJME7BFWDPBLiToHFj96k+zLMh5b+7TxNRwWkZzTuL+oeOrnLF/CZ4la413zG49rTiJBR/lmO/p8LbKjbZfrGFd0nydOpkW2DaUzuRRZk9IrO7cfCitd1HvrsRmjt0w61Wg9y4WHaXKL+edOv8BsZQM7ENboo+VPa1yZJpWAwzYMLRtIbQnWGSZ0r1SZDuHv4QXLrfvBTS9Bx2UhyrdvGMe+UXjJrt0s3LOVVjIZ1T0XfB5Cvz9YHo3Cx2DoMln9WYdU5N2aZuUgK0ybL1gucIx7SI8uDuqfv9CCNAu9J6so3EDxIlBSUHNx3bLrgkoWYsnJjBMm85JXCYQlkE+LyiBTpG5bSHoVlINx1Vhr1EOzpjY01RgfVNEvej2nuM/KjS2hNtVHPz0oGFRybb9yNZFVvEAOTw5iLsUXvz/yea8g7S1JrLhLu0ZYR8IeOiu4Fwk9+fW4JRv1BQi/ZqRQoF40K9at+1p3/6DujWCuF6h7yLj3JTAN+t1dlN54KerKbm5gtREyln5d6eFo2fBc2fy5eZydZoXlPDb1Xs16XtpPExgKv3q6mjYO0XU0KCfDElzG+zR2RuzqFa18snOPKW4Ie4tRpqPG/6yIWLkyYAtbpcKpiFWYNdIL6ilwTkoVwSYPeFYOW4BZVitWZss2A8pFq86ObR7urdqgo/RvHDT8zfE6w/PF+0/+XLb7/9+de3r//8/PH/f/n67fM/vn391+8/n//0568//fF5/e3/AQ==);lineShape=1;" vertex="1" parent="1">
                    <mxGeometry x="9.458406231715117" y="503.65021611546535" width="501.5147620801429" height="304.68669886103885" as="geometry"/>
                </mxCell>
                <mxCell id="67" value="" style="shape=stencil(lZ3Zst22EUW/Rq8szMOzk/yHqixbKjuSSpIz/H2AqHh4z27e1dKbh973kCDQw+4Bb/IvX9+//fzuTQpfv3359Me7f3/49dv7N/lvb1L68PH9uy8fvq1/epP//ib/8tunL+9+//Lpr4+/fv/3z2+35P6nf3761/4L//mOm/WIYaNS+O/3/5L60dv//8s/vgP+/PDxGVD6M6AdsyNgZAWkAYB2xPgMePyJ1wClKiBHBOgjlaNXAPQjFgUkWqV+lPQMyMcICOhZAbkAYBxBfiEdYyIgVQUUeulh3iEdgZZ1HFXeIR6V36EOBQT60uNoslvDUWlZzSPFecyEgFwVgHtpHFF+YT0kfYd+jKKAwJuvPr90XLuLVmnt1ucPF9eG5/PQiwISA/LzEY31aLSs9ZhBAYG1RpVHKkelVVqKrCkg0BEt55o8APncjq8B9DtkfoelI2RrJP6FfMypgEjbeykV+dLxaHTi8tGDAhL/QpNfCEfnd5AzvQCZvsMCPH+4dUKdHygij1svqwqYrLrzUZ5fYByTlzR3kW90OvN5tC75TM+fdFMM1sLp6M9/f5kW/vvy/Eu70N+P53Jc8pHly/OWa2zNw+l/XPJ48MMRhsgnOJVjnst9yQc4AWOZkGf5emrLe/l+tCHyhZ5nKd8u8nQix3KGni1UOSas53j870u+wf5f8iGKfKbnz6f1uuRJK46k7l1G32vEIw6RJ7dlhCNOkY/wvn3qeVx+FOifPlSrJ9Q/vR9JfEfUh/2xfS/5CPutL19XrMwxYX160fMYzw14L7+WWyzx6YTdyydjJtFb6evPiR3G89uDMWGnu3Mr36bqk4DxSht6vsJpZO/l+7ncl3yD/bPk5XyF0wDeyy/1NEW+kHzV/b/sLz1P0bggoD1qy94FkadwrqUj6fMk2J/t4ZC8kIf9U+f5OV/Iw/PXofvHke92fcg3rvUn/37RQI7Xp6ab54F4owb1r8IZ4tzKl6HBcTjjwHv5Zf71eSrJL89e93+j58nqbywFAO9bkrIB67zDeSlRGRDWJ3kanxvXPw9d/4j+QDbUAbv0uVn9T8Fernp+I+rDXE4e4sfsUV72Yoo8rk86w+VLnux7Nv5nQnu05KPaU7J3OZzu7yVP9vQKP174G6Cvlvsu8X9Gfbvkjb9U6e/3I6v/Q4Tecn/l+Qv6w5uMKyJP+mrJG/+Q9MN2N4PIE3O2l0P9Z/I/9+fMIp9pPdNp3i75Cvt5c14qP2h9lnp6/r4N46nLPFzyZN/jPNXHJU/6dskHjdco/o1D91tH/y12JZs6xstLPmp8TfFvbOefu+QLPX9T/T/OD3IvX9VfnajPl7xwxzGggogrPusKGPQGxoOLEXmmmA0FmZBsXoAsNoyV3Pp7yvdljFIXQKOSgmp6veIUM1lPRfAaQPT6+vJEdOxVl5fuqKkXIBlml0zfVEu5zh5t1XESOS/Y70ah0snUPeQTqsZm5DOqumqepyK1VtQz3qqFTL0yIw61ZjR7Ztc4qaVZvgKFelEjw+XroKo7iZaHPJu+eCrmh7yzpTWyXb5gAVNpjkxm6i6dBPoLeTTFmgpZvm8BPZSUuVu+dcL1Ec8vM1UcNadWOHSIeh5LRKos6nkvTAWF82kf8vm0Ja/Iy/ctxZEXy1eqIy+eU2m434J6Niv2I2rWPs/AfGBQfVImUiPhJOoenlY4Y8tXvpd4ojWya2A8v8QGQDMNNWMoGTWSXPKTz9ezvqoFXTljU2tFKjcZ5rph+imdgfULeaJO83m6H/IdU6VZI/k6MNubVd/WiW6NyZ61gFRxVqapBdQ/DyL8IR9RfxZlUlpC+1uUGd/cHMoLs7a5P1gfK//gFl+Tl0im4Xpa+f6T8gO9UCs/Ty71x+R7OAKvj5Gn4gIr/7BQPyjP1IiVz973qipPVJBhgnrBUKmoPe2VqTgNfHpHf9Vktvpg6lQzN5397Xpat0dkGNC+V43kR8TUa1NmfCRMhTWN5Af7D039jVGQKjDM0aio/7vqzyVP/pUpKBoN7fs0kX9H+2UyAWOwPxm0BGRMLMXZ1RVTAYM8xIcCf5AFzHZHW90Q2acvZ3btAeCakWhOwUyYsFphsiSsJquVaMrrdhWJQwnJLzxM4Wuck0RKC0Ak8CbBno/CrKjat28ZFEC+xw5OzC+QsktZ87y7qoqi1aLu9+RKiq2Pns/b7GjvkyldWAAKgDb3Le8wUGNb8n5XGZLLVTS7sQDkQ60QWMpl5jzDzHvAVFZiTvTyiz3TE8OOUpVhXwBa1hUmFfMLZBh2HDMUQKtUixa1eICu3Md+JEr7RnUuNoCMlbHme1k5US/mcH84Mm9JK38WwCmtEIPubL5dS2K3NxXzJC2kXCeO2PZlwYc5osgZdg0al9bAeqFxlhG/AFACeJqE2axcY2t4qwWgDzeTeaSCjPiuizQALGgtRvNxlm0/sbwDpxWn3UuRV6lpXd50iqPbqSNe+BpYAWtU5eD4aBcWS2plcH1q11qU0fHEbQNlXEQKCTdAHqliucgNoHA7ggVkLKC4ASS0cTcALrG6AQQu8L4DYOmyAexQ6aeWtQ8u8+xKLuzgjb+D5MFXdIirZLZ3d8vgxW/dBoB2a9NU4AJQ7nyaWo3OyfatNZ710jJi+EgmO9kjRigLICduF9jRh1uqV1it6QGEFm3O1jB187vGjku25Uu3R9L4Vfvw/NKNMye2br5VjONs3fz2b9hkiXe/AFgXbuoeWsbCZFto3zKGxzcA5idmVs+4MWG+V0le2jGKWY/oAmB1eDHVDE7DQ9Hz0ALWbyxAaQqgcGABJNrdtDP3kQivUScrsqq6dQGw1evhf70AoOtQNUKpA0P8HT0PBeDmM0HTCkFw81WTvejc6FG1EKU2PkCm8mkBKJ6+GIAHoGIMNE2tb2XGfQFkt1au7r84hhcAolpmM+VVmftbmmZdFwC9yqacQE2YNrZe5Yp/cVm7lrBXrune3ZhSg8bh8ez6pVcMj4809B12LpVeemgyrzQM/GyvZHG6Yk15SSnsSg+tzyjZ+wUh1TaX8nOAyMp4KKO7AKgELCBwu9QdIPKHE0Ce7DrcATBosoDBLXF3AOzhsoCOmclbAAYcFuDkBu4AxPPdABwXzjSCLACSCEOL3nLBfMgGmAIhooA3lZkVgPHDVIOSM2+NqTnoXeNEm2+qBcqJj+jUqors9KFP5chyYudkapSVna7YOwB+aQsIzP5MTZ1m7rKxgDTPuOvHAd6yCmBw4+0dALX3HSD83Et3LJi7BVBa5wbQ2OzeAVBVWoCjZu4AlMW2my8VLLvZgKAA56W1BbFgjfwGVAWgzze1dGUX4/AjieZLjz6TV52TqQAqxtoOlrx0Yl5jaOC3C6jYxklnpNM6ejMfwxkgMDS03ADHdTDv4Jy4YH/BMSj2FxyDMg3A0XxmlRwbJylz78PNm0ko6CRO5e6dpqObE5c4xJ9KxW8Af+lpVgmJwaEcWXIM+9AAfAP4AFWzNRx/SVvLEkfst0fU+QW7l5wRNmaqjuMZN3seHDfUaA1MTRmv8geOqPnS+AtW3Sd21qdmy5ymvdsT51jRnwbo9s6e2ZUE3rZA/NLSGH4VqL4KMCYLq4tCUHbTt7vzZy27dlu6voMUnfjeia6r6/9YgPOpFeD6cBbgvbQAXD/UApwzqgDXl7YAx1u3ACceUIAbcViAE9MIwI+aLMCxuwpwIz+N8d3YUkoRMjdhzakuWXbSx1MNRHYs+1Tie8f4DJAyr+xwwFO5x1y83VoNsYFTiKZ665nbhK2ByJUTEMat9PgiC3AYqTuAZ0YF4LBqdwD0TizAYQbvAI7zrQCH3bwD/Nx38BjaO4Dn3gvAYZnvAA5JJgFEcX04YRE8Lt6EWYWbQaapxt75BHok44fujAVHHNrv5rLMojV21oVdYwmzipNJHRruVu7Fnl3foXKPx57uKL+QeKRlVzZnd5lx9ksa0HcGj1N+mrYsfICaci21cEDdTKeWQ603LYvfmVRnJuyzut+5Wn7pbACYb27nkX8AnHxz0/ac6ozabUqS1cEJOTPKoDqzSKtGHHVyQZ8Z5lsn03CmHqk6Pl/VAayN5yftQv6pALSixdSQBGy7vHoLHoDIqrJoRWzjgQzTdGK1yNVCRVk1r9KmKF/k1fJYgFMtVFTNePVItt2xsMkqmjP3aqqKqvtdtcUAqY5oPFxl17bJd3AKXIs6640Lvu2A7sY16Ls0Rz4cF97Pqtp7VwCyMhZPYNcYsl4SkmxXMdJeahpl9UeJ36s2TuokiweQcopd6+nY6ecvvatJ2U4LHerVq3Ytp+gDx0vsSdJRAU7NrQLcql5tkHPrhmV7+5XJCnBrnxXgVlcrwK3fVkDhMS4W4Nagy4kbjSsAjVc5OldtmQKm4cRxZnuP6QG0mSa4ZV7S3xN5LzUN8SdPqrtpsUhc5lXVI9sFqewJiH2Yj2ll94Cs3swu5qQPl9TGzcq0nW1UbFgdMab6rZOnfoxu+ns6fulhRrFvXQjvMJIZ0T0wV9tNBu9Kld4Dmo6y2dEpvMPutDfdaESUN1M9tzktnrtqGxWJq2xRI/aLjLwF7J69ZgDwSLsrUEZkXRmGe0TUER1XEuMWUIaWYl4ZhnuAuQhg8500BCHd9EJ26hidZgA993PmpqmjK317DyjaujKZWt+c8lAAOa7J8EWb6uBWX1VMHXVlst+he+3Kqsn4opidLTYN0TjpMpoP11AxpWCa9irPHpymV76ioY5D/dBd7Q/LGk3f1ORxmrEp0TczD8oz83b3DQTU72/6E3ZrI6Uh843dJb5o35shByhixXc0k8gmM7Qxamy5zB7OHwwaKnr+j9qHwe1rQ9sZBl/i0vUwjIY2tJvn50uTTK/bttoor7M7OEHTdLbbnlWCs1aka2BwxYyhifasFZyNo7NQAj6PnUUzMcwoqlp28IbyEtbvWTc4O0vS6jteJZtjgkme1WM6sZxZQFmb751ZQ1beGfNs5JlHt/I8i+lOnjL2Rt6ZJWXleVaVledZWFaeG6WzzuJzZnlZeU4PZeV5W8aOStvu6Izx1trJ5ow5N7fOBHRMs0ZFjZOG2XRqTWQVkplVOHgMtsmQdCTlkunranjek9Z87Vl/ZFFN71t1Zo3qLMTCU4aUAa88MDiYHFVG4jWoU1N55HHQKGKHOjiLUpoUKl+DENRBcWddigfkztLUW3y8WZ1SSebOAtXn8WaNar9bwdyuGSpSeBZxUHu9Z7Hi8+itSFzHE5XTKFxZFDUg27NqcZaseOl5YkbUxD55YCIuqv7MHfVnVP8qd574bW5dcqZrm9m/Ffd/NI1MxZn1muTvc3lnNDVREWuRk/p7e9Y02l+9ZWp4sz1N3wnpc8O5Jc6oN3OLVUb9YOLUPb0Z9NswzxMw1B56HvcsdGJWdRJf5NmP+xZCc4smhsFB2/9iw+mDK+bUIfkV+YtobOoOvXlIvsT+MeOdrwsg5HDkXuyY9djEhAR3NHFD5Dtfo+HCYsA82r7301yHQJFSNBeOTJxfFe2YT4ycow1t8UI3eyFF5wsmuhnjyprOXCjLuaFomiI4kRmnyUBjgVKcGso3zIZtUy9VKzw40ZiOikUu1/12lzw1zidD/VeMBGwoUDDyTGaGSWFu18x95AsZkxlNVvC87GJ4qb1lJriZimb0FPdUSXPhEV+QJK4fN+6lmwscMfK3TRNYp5LNlFhu2FmOg0zBSRwJmwtYE1qybF0JrNnKRfcnXxC5HDFx7XlqeTZDSyJa+mzGd0Rmgoaxenyh2LQXShKTW4JSa4EzUuZCKI4EVuAi2f6ATEcxw3j4wscV2Mn34iaJXSNrLhAE+Ro0dAhoX/YFhVHkyeeoZnpXwCHM1Qz6CeiJ3l3giDnNmwsiUX4qtczyO4+r+w3lk4ZiAS/A2pcAmOeB/dzKjTwlro19Cci8NHNZPF/o2bpScQGZmmYu5A14IVczIy54qvsmhvXv44W5Ue0LM9FLXu/KwvXvSfUJV6P2rP5YxMi8FxNaYaTaq/q3EScD96b2MWIyvHdrTymy7bZrHvVnnxpgcN//MNfmZDyPw1wIyJ0ZIxkqiKtnzAXNGffbMBdAF9T/o+r5Lej/j2auRcLzMrpSBTya/Zo5e8njeg7tw61YmDOm6Wbglo9gysN50ETU9XRmT0Yz3RLrWaaZT955RlBW/4GvuVvyReNTLKrOqk86l8Bl1YfOYNii8f7A82Ir2wdX/po69cl9Hoa6m9wRdyOPZY7meWJAAsLWzcfAjSembn7XU/AnyIYFct5ZOJfodMUWY/ScMSI2isk8Ptu4NdEdAS4ppVjQENjpjpE57NmUqdncFhfa65WVrOtsM1l0K5GV72vcYT3Md+C6sWnC/+h0uo8bKhjnLAxzdejkAm/DgMWJFJ7tlUzOTFjjk24n0OnGDApw5uXpcInEv2Dm5W0/yunGNLNTULEOM5eK7y/bUzbtgAynG1PewanXNm0hzu3TuxRa8iKVuwuaue68ckNcM9OKGrdJGTXjOQBmEG7qPIfHaL7ExaN2Nm/q/OHM9N/UvTHmOkuo89iRaib9+AD70rxKOqfN/YVk34EbHqL50s4qaVbR/Q7RvjQ3k9nN5+wlVWROV6wPWP/w+e2399//5bcPf/759duXT3+8e/n/f/v05d3vXz799fHXx3/6+v7t53fr3/4H);lineShape=1;" vertex="1" parent="1">
                    <mxGeometry x="-24.088321024110883" y="12.659209127778922" width="262.9047196367005" height="764.438070031001" as="geometry"/>
                </mxCell>
            </root>
        </mxGraphModel>
    </diagram>
</mxfile>